<svg width="20" height="20" viewBox="0 0 20 20" fill="none" xmlns="http://www.w3.org/2000/svg">
<path d="M0 9.5C0 8.39543 0.895431 7.5 2 7.5H8.75V12.5H0V9.5Z" fill="url(#paint0_linear_543_3650)"/>
<path d="M20 10.5C20 11.6046 19.1046 12.5 18 12.5H11.25V7.5H20V10.5Z" fill="#E5E4DC"/>
<path d="M0 2C0 0.89543 0.895431 0 2 0H3.75V5H0V2Z" fill="url(#paint1_linear_543_3650)"/>
<path d="M20 3C20 4.10457 19.1046 5 18 5H6.25V0L20 2.38419e-07L20 3Z" fill="#E5E4DC"/>
<path d="M0 17C0 15.8954 0.895431 15 2 15H13.75V20L0 20V17Z" fill="url(#paint2_linear_543_3650)"/>
<path d="M20 18C20 19.1046 19.1046 20 18 20H16.25V15H20V18Z" fill="#E5E4DC"/>
<defs>
<linearGradient id="paint0_linear_543_3650" x1="10" y1="0" x2="10" y2="20" gradientUnits="userSpaceOnUse">
<stop stop-color="#CFAE64"/>
<stop offset="1" stop-color="#694C09"/>
</linearGradient>
<linearGradient id="paint1_linear_543_3650" x1="10" y1="0" x2="10" y2="20" gradientUnits="userSpaceOnUse">
<stop stop-color="#CFAE64"/>
<stop offset="1" stop-color="#694C09"/>
</linearGradient>
<linearGradient id="paint2_linear_543_3650" x1="10" y1="0" x2="10" y2="20" gradientUnits="userSpaceOnUse">
<stop stop-color="#CFAE64"/>
<stop offset="1" stop-color="#694C09"/>
</linearGradient>
</defs>
</svg>
